PathFileType	4	(X/Y/Z)	G:/Ayumi_testdata/vicon/updated_static_jc/static_00.trc	
DataRate	CameraRate	NumFrames	NumMarkers	Units	OrigDataRate	OrigDataStartFrame	OrigNumFrames	
200.00	200.00	4	66	mm	200.00	222	295	
Frame#	Time	LASI			RASI			RSACR			LSACR			USACR			LBAR			RBAR			RHEE			RMT1			RMT5			RMT2			LHEE			LMT1			LMT5			LMT2			LMMAL			LMFC			LLFC			LLMAL			LTIB4			LTIB2			LTIB3			LTIB1			RMMAL			RMFC			RLFC			RLMAL			RTIB1			RTIB2			RTIB3			RTHI1			RTHI4			RTHI3			RTHI2			LTHI1			LTHI4			LTHI3			LTHI2			FHD			LBHD			RBHD			C7			T10			CLAV			LSHO			RSHO			LRAD			LUL			LRFIN			RRAD			RUL			RUFIN			RLEP			RMEP			LLEP			LMEP			LDUPA			LMUPA			LUUPA			RDUPA			RUUPA			RMUPA			RKJC			LKJC			LAKJC			RAKJC			
		X1	Y1	Z1	X2	Y2	Z2	X3	Y3	Z3	X4	Y4	Z4	X5	Y5	Z5	X6	Y6	Z6	X7	Y7	Z7	X8	Y8	Z8	X9	Y9	Z9	X10	Y10	Z10	X11	Y11	Z11	X12	Y12	Z12	X13	Y13	Z13	X14	Y14	Z14	X15	Y15	Z15	X16	Y16	Z16	X17	Y17	Z17	X18	Y18	Z18	X19	Y19	Z19	X20	Y20	Z20	X21	Y21	Z21	X22	Y22	Z22	X23	Y23	Z23	X24	Y24	Z24	X25	Y25	Z25	X26	Y26	Z26	X27	Y27	Z27	X28	Y28	Z28	X29	Y29	Z29	X30	Y30	Z30	X31	Y31	Z31	X32	Y32	Z32	X33	Y33	Z33	X34	Y34	Z34	X35	Y35	Z35	X36	Y36	Z36	X37	Y37	Z37	X38	Y38	Z38	X39	Y39	Z39	X40	Y40	Z40	X41	Y41	Z41	X42	Y42	Z42	X43	Y43	Z43	X44	Y44	Z44	X45	Y45	Z45	X46	Y46	Z46	X47	Y47	Z47	X48	Y48	Z48	X49	Y49	Z49	X50	Y50	Z50	X51	Y51	Z51	X52	Y52	Z52	X53	Y53	Z53	X54	Y54	Z54	X55	Y55	Z55	X56	Y56	Z56	X57	Y57	Z57	X58	Y58	Z58	X59	Y59	Z59	X60	Y60	Z60	X61	Y61	Z61	X62	Y62	Z62	X63	Y63	Z63	X64	Y64	Z64	X65	Y65	Z65	X66	Y66	Z66	

222	1.105	134.05737	761.95496	918.26447	129.88329	984.47479	918.94189	309.56985	912.30194	950.04370	308.75372	852.38220	953.27417	297.91202	882.26685	966.43158	1270.82983	-346.48297	26.30663	1226.42493	1876.96082	26.28258	323.07916	1019.66498	39.81935	128.17744	1043.31958	43.43114	165.00662	1113.79724	34.98173	140.17876	1079.97131	42.69432	326.26950	745.16724	45.82902	134.39020	736.45380	46.32363	169.96843	662.78735	33.41989	143.17566	698.03998	45.91190	276.68954	778.68695	72.94235	232.92419	829.01312	456.93640	219.28992	721.38971	454.00403	278.81857	700.98938	69.13915	290.29187	691.44421	209.60036	313.94104	691.37524	270.89594	263.39297	684.43658	268.13474	301.50876	687.13037	314.30002	275.18256	994.07910	68.34811	235.31375	935.36810	446.55231	220.62915	1041.22839	461.32416	284.67804	1068.60693	72.24764	257.11334	1082.69250	319.27417	307.55920	1077.17590	314.01001	276.58728	1081.31592	256.13428	241.85649	1060.04553	783.85480	242.90891	1064.52283	635.15167	191.48502	1066.59131	637.06189	219.11890	1070.18616	697.18823	238.65388	698.63177	778.85858	236.44875	694.29150	646.76880	185.88689	693.35413	637.47980	200.32088	689.16455	701.21210	130.80762	775.65436	1592.93872	241.60394	786.61517	1576.13635	253.16251	910.09497	1571.35400	263.60464	857.92072	1391.41504	285.97449	877.34314	1007.45654	141.46220	872.72168	1328.03052	245.42430	725.16138	1380.98352	237.21812	986.80420	1396.81152	166.09929	222.70885	1358.75989	206.73029	222.34096	1354.27002	152.66476	130.81192	1338.09204	241.49670	1500.60181	1390.08984	288.41153	1499.73047	1383.99194	235.71085	1590.77161	1392.35461	293.83069	1271.38745	1330.35071	255.51726	1271.95520	1296.78137	222.06891	454.08847	1300.48645	181.19716	466.78827	1278.07581	238.08400	506.10864	1354.14734	202.17763	536.67529	1371.70898	239.23206	585.31604	1362.71985	266.84033	1205.68005	1382.65088	257.59998	1143.96729	1384.22546	216.57298	1212.19641	1385.75879	227.97145	988.29825	453.93823	226.10706	775.20142	455.47021	277.75406	739.83817	71.04075	279.93030	1031.34302	70.29788 
223	1.110	134.06584	761.95636	918.27179	129.89847	984.46918	918.95386	309.57483	912.30164	950.03467	308.76904	852.38214	953.27405	297.92264	882.26154	966.41382	1270.81506	-346.49286	26.29225	1226.42151	1876.96313	26.28104	323.07156	1019.66656	39.82179	128.18175	1043.32935	43.43587	165.07300	1113.67847	34.81985	140.17360	1079.96594	42.69534	326.26404	745.17444	45.82293	134.39471	736.44940	46.32202	169.97623	662.78485	33.40181	143.17664	698.04114	45.91176	276.68820	778.69104	72.94796	232.91101	829.02167	456.93219	219.29132	721.39203	453.99826	278.81564	700.98743	69.13255	290.28922	691.44159	209.60477	313.94733	691.37720	270.90173	263.46072	684.49255	268.16074	301.54059	687.08136	314.32120	275.18115	994.07043	68.34783	235.29813	935.36389	446.56046	220.62732	1041.22241	461.32504	284.67752	1068.60132	72.24683	257.11200	1082.69189	319.27820	307.55460	1077.16870	314.00247	276.57983	1081.32129	256.13608	241.86603	1060.05481	783.85724	242.88766	1064.50964	635.14905	191.46713	1066.58765	637.05695	219.22324	1070.10718	697.05206	238.65729	698.62579	778.86420	236.51089	694.98456	646.57214	185.86507	693.38678	637.48749	200.31377	689.16980	701.21179	130.81316	775.64716	1592.91895	241.59500	786.61755	1576.14734	253.17404	910.10315	1571.35425	263.64200	857.91882	1391.41663	285.98621	877.33228	1007.45905	141.49606	872.71704	1328.03772	245.45032	725.15308	1380.98804	237.24342	986.79742	1396.81921	166.09842	222.70856	1358.69055	206.71138	222.33627	1354.20422	152.64931	130.80939	1338.01587	241.51741	1500.59424	1390.12317	288.42831	1499.72888	1384.03210	235.73904	1590.75488	1392.39343	293.84735	1271.37952	1330.36865	255.54089	1271.95020	1296.81360	222.07970	454.09726	1300.44324	181.20673	466.80374	1278.03809	238.08224	506.10989	1354.14075	202.18597	536.67651	1371.67786	239.24997	585.32019	1362.71167	266.85519	1205.67004	1382.65991	257.62692	1143.95813	1384.23914	216.60251	1212.15076	1385.69666	227.96272	988.29315	453.94275	226.10117	775.20685	455.46523	277.75192	739.83923	71.04025	279.92934	1031.33588	70.29733 
224	1.115	134.07932	761.95471	918.28058	129.91617	984.46716	918.95807	309.59537	912.29132	950.02728	308.77628	852.37823	953.26337	297.93079	882.25641	966.41058	1270.83179	-346.44781	26.30570	1226.42334	1876.95142	26.27717	323.08197	1019.66010	39.82357	128.18561	1043.31885	43.43344	165.07239	1113.67639	34.81057	140.17546	1079.96558	42.69095	326.26785	745.16595	45.82505	134.38837	736.44897	46.32778	169.96623	662.79181	33.41709	143.17662	698.04205	45.90494	276.69168	778.69220	72.94493	232.90958	829.02496	456.93192	219.28146	721.38977	453.99536	278.81949	700.98346	69.13732	290.28021	691.43848	209.59358	313.96045	691.37262	270.89163	263.45624	684.49487	268.15677	301.62952	687.01093	314.31384	275.17401	994.06262	68.35043	235.29265	935.35211	446.55197	220.61798	1041.21460	461.32074	284.67014	1068.60095	72.24590	257.09995	1082.68933	319.28085	307.55450	1077.16821	314.00027	276.58392	1081.32129	256.13815	241.88538	1060.04651	783.85309	242.88589	1064.52783	635.15460	191.46487	1066.57202	637.04712	219.24287	1070.10864	697.05072	238.65860	698.62219	778.86230	236.48419	694.92041	646.57373	185.86885	693.35974	637.49567	200.30229	689.16669	701.20178	130.82225	775.65387	1592.92212	241.62653	786.61517	1576.14807	253.18443	910.11047	1571.36926	263.66901	857.92438	1391.42603	285.99893	877.33954	1007.44293	141.53613	872.70740	1328.05518	245.48067	725.15063	1380.99426	237.26514	986.79071	1396.82385	166.08310	222.78458	1358.46265	206.69997	222.34805	1354.13013	152.62169	130.82411	1337.94165	241.54108	1500.59277	1390.16003	288.45407	1499.71350	1384.06677	235.76743	1590.73975	1392.44434	293.86972	1271.36560	1330.39636	255.54657	1271.96277	1296.83716	222.08879	454.10208	1300.41248	181.22240	466.81668	1277.99634	238.09480	506.11588	1354.11182	202.19090	536.67505	1371.65430	239.26559	585.30511	1362.68469	266.86716	1205.66174	1382.69116	257.63605	1143.95166	1384.26648	216.60880	1212.17224	1385.78064	227.95531	988.28336	453.93636	226.09552	775.20737	455.46364	277.75558	739.83783	71.04113	279.92207	1031.33179	70.29816 
225	1.120	134.09329	761.95300	918.28894	129.93600	984.46436	918.96265	309.61322	912.28680	950.01941	308.79727	852.37164	953.25745	297.95853	882.25427	966.39514	1270.82446	-346.46820	26.29868	1226.42163	1876.94470	26.27945	323.07886	1019.65308	39.81969	128.17897	1043.32996	43.43553	165.00998	1113.79370	34.98154	140.17493	1079.97437	42.69165	326.25903	745.17181	45.82374	134.39355	736.45917	46.32918	169.96280	662.79016	33.42598	143.17805	698.04559	45.91313	276.68970	778.68872	72.94514	232.91368	829.02545	456.92807	219.27837	721.38824	453.98618	278.81009	700.98767	69.13629	290.27374	691.44165	209.60312	313.94525	691.37628	270.90692	263.37979	684.42444	268.13654	301.62787	687.00647	314.32919	275.17789	994.06866	68.34873	235.28888	935.34589	446.55139	220.60995	1041.21863	461.32770	284.67908	1068.60083	72.25288	257.10074	1082.68738	319.27777	307.54782	1077.16357	313.99789	276.57135	1081.31616	256.13120	241.87166	1060.04175	783.85583	242.89233	1064.52490	635.15887	191.47946	1066.55579	637.04260	219.21263	1070.10938	697.06842	238.66591	698.61713	778.86420	236.41066	694.26910	646.73975	185.85490	693.36395	637.48975	200.28923	689.16217	701.21130	130.85445	775.64636	1592.91125	241.64215	786.61957	1576.16260	253.18544	910.10480	1571.37073	263.68823	857.92438	1391.41943	286.01535	877.32947	1007.43530	141.56735	872.69537	1328.05444	245.50728	725.15680	1381.01038	237.29102	986.78906	1396.83276	166.08514	222.80025	1358.39746	206.70001	222.35356	1354.05237	152.60838	130.83949	1337.85986	241.57417	1500.58276	1390.20215	288.48557	1499.71252	1384.10876	235.79761	1590.74329	1392.49951	293.90213	1271.37280	1330.42822	255.58345	1271.96155	1296.87012	222.09966	454.11957	1300.36780	181.23312	466.83817	1277.96375	238.11148	506.11771	1354.07910	202.20311	536.68390	1371.63245	239.29924	585.28357	1362.68823	266.88077	1205.65942	1382.71887	257.65558	1143.95374	1384.28662	216.64365	1212.16467	1385.79993	227.94942	988.28226	453.93954	226.09602	775.20685	455.45712	277.74989	739.83820	71.04071	279.92848	1031.33475	70.30081 
